# xmcd
# 
# Track frame offsets:
#     150
#     14316
#     26638
#     40745
#     54298
#     67434
#     81079
#     92596
#     105997
#     118874
#     131278
#     145603
#     159789
#     171830
#     198828
# 
# Disc length: 2833
# 
# Revision: 4
# Processed by: cddbd v1.5.2PL0 Copyright (c) Steve Scherf et al.
# Submitted via: fre:ac v1.0.17
# 
DISCID=b80b0f0f
DTITLE=Various Artist - Simply Blues: Blues Legends
DYEAR=2005
DGENRE=Blues
TTITLE0=Muddy Waters - Rollin' Stone
TTITLE1=Howlin' Wolf - How Many More Years?
TTITLE2=John Lee Hooker - I'm In The Mood
TTITLE3=Sonny Boy Williamson - Good Morning Little Schoolgirl
TTITLE4=Elmore James - Dust My Broom
TTITLE5=B.B. King - Three O´clock In The Morning Blues
TTITLE6=Memphis Slim - Every Day I Have The Blues
TTITLE7=J.B. Lenoir - The Mojo Boogie
TTITLE8=Muddy Waters - Hoochie Coochie Man
TTITLE9=Little Walter - Juke
TTITLE10=Lowell Fulson - Reconsider Baby
TTITLE11=John Lee Hooker - Boogie Chillen
TTITLE12=Lightin' Hopkins - Shotgun Blues
TTITLE13=Jimmy Witherspoon - Ain't Nobody's Business
TTITLE14=T-Bone Walker - Stormy Monday Blues
EXTD=YEAR: 2005
EXTT0=
EXTT1=
EXTT2=
EXTT3=
EXTT4=
EXTT5=
EXTT6=
EXTT7=
EXTT8=
EXTT9=
EXTT10=
EXTT11=
EXTT12=
EXTT13=
EXTT14=
PLAYORDER=
